<svg width="28" height="31" viewBox="0 0 28 31" fill="none" xmlns="http://www.w3.org/2000/svg">
<path d="M9.69195 10.85H6.53375C4.79136 10.85 3.91952 10.85 3.25402 11.1879C2.66862 11.4851 2.19302 11.959 1.89476 12.5423C1.55566 13.2054 1.55566 14.0741 1.55566 15.8103V24.4903C1.55566 26.2265 1.55566 27.0942 1.89476 27.7572C2.19302 28.3405 2.66862 28.8153 3.25402 29.1124C3.91886 29.45 4.7897 29.45 6.52868 29.45H21.4716C23.2106 29.45 24.0801 29.45 24.745 29.1124C25.3303 28.8153 25.8076 28.3405 26.1058 27.7572C26.4446 27.0948 26.4446 26.2283 26.4446 24.4956V15.8052C26.4446 14.0724 26.4446 13.2048 26.1058 12.5423C25.8076 11.959 25.3303 11.4851 24.745 11.1879C24.0795 10.85 23.2095 10.85 21.4671 10.85H18.3073M9.69195 10.85H18.3073M9.69195 10.85C9.4937 10.85 9.33344 10.6899 9.33344 10.4923V6.2C9.33344 3.63189 11.4228 1.55 14.0001 1.55C16.5775 1.55 18.6668 3.63189 18.6668 6.2V10.4923C18.6668 10.6899 18.5056 10.85 18.3073 10.85" stroke="black" stroke-width="2" stroke-linecap="round" stroke-linejoin="round"/>
<path d="M7.34305 12.4L20.6566 26.35M17.7443 23.5215C16.6188 24.1568 15.3467 24.6062 13.9998 24.6062C11.062 24.6062 8.47999 22.4682 6.99932 20.9259C6.60848 20.5188 6.4131 20.3152 6.28871 19.9156C6.2 19.6307 6.19997 19.1192 6.28871 18.8342C6.41313 18.4347 6.60893 18.2307 7.00054 17.8228C7.74683 17.0455 8.77269 16.1173 9.98271 15.3877M20.2405 21.6711C20.5176 21.4156 20.7715 21.1643 20.9993 20.9272L21.0017 20.9245C21.3916 20.5184 21.5871 20.3148 21.7113 19.9161C21.8 19.6312 21.7998 19.1194 21.7111 18.8344C21.5868 18.435 21.3912 18.2308 21.0006 17.824C19.5199 16.2817 16.9376 14.1437 13.9998 14.1437C13.719 14.1437 13.4414 14.1633 13.1677 14.2M15.1006 20.6828C14.8072 20.9541 14.4219 21.1187 13.9998 21.1187C13.0807 21.1187 12.3356 20.3381 12.3356 19.375C12.3356 18.9046 12.5134 18.4779 12.8024 18.1642" stroke="black" stroke-width="2" stroke-linecap="round" stroke-linejoin="round"/>
</svg>
