<?xml version="1.0" encoding="utf-8"?>
<!-- Generator: Adobe Illustrator 27.5.0, SVG Export Plug-In . SVG Version: 6.00 Build 0)  -->
<svg version="1.1" xmlns="http://www.w3.org/2000/svg" xmlns:xlink="http://www.w3.org/1999/xlink" x="0px" y="0px"
	 viewBox="0 0 500 500" style="enable-background:new 0 0 500 500;" xml:space="preserve">
<g id="Background_Complete">
	<rect x="416.779" y="398.494" style="fill:#EBEBEB;" width="33.122" height="0.25"/>
	<rect x="322.527" y="401.208" style="fill:#EBEBEB;" width="8.693" height="0.25"/>
	<rect x="396.586" y="389.208" style="fill:#EBEBEB;" width="19.192" height="0.25"/>
	<rect x="52.459" y="390.888" style="fill:#EBEBEB;" width="43.193" height="0.25"/>
	<rect x="104.556" y="390.888" style="fill:#EBEBEB;" width="6.333" height="0.25"/>
	<rect x="131.471" y="395.111" style="fill:#EBEBEB;" width="93.676" height="0.25"/>
	<path style="fill:#EBEBEB;" d="M237.014,337.8H43.915c-3.147,0-5.708-2.561-5.708-5.708V60.66c0-3.147,2.561-5.708,5.708-5.708
		h193.099c3.146,0,5.707,2.561,5.707,5.708v271.432C242.721,335.239,240.16,337.8,237.014,337.8z M43.915,55.203
		c-3.01,0-5.458,2.448-5.458,5.458v271.432c0,3.01,2.448,5.458,5.458,5.458h193.099c3.009,0,5.457-2.448,5.457-5.458V60.66
		c0-3.009-2.448-5.458-5.457-5.458H43.915z"/>
	<path style="fill:#EBEBEB;" d="M453.31,337.8H260.212c-3.147,0-5.707-2.561-5.707-5.708V60.66c0-3.147,2.561-5.708,5.707-5.708
		H453.31c3.148,0,5.708,2.561,5.708,5.708v271.432C459.019,335.239,456.458,337.8,453.31,337.8z M260.212,55.203
		c-3.009,0-5.457,2.448-5.457,5.458v271.432c0,3.01,2.448,5.458,5.457,5.458H453.31c3.01,0,5.458-2.448,5.458-5.458V60.66
		c0-3.009-2.448-5.458-5.458-5.458H260.212z"/>
	<rect y="382.398" style="fill:#EBEBEB;" width="500" height="0.25"/>
	<g>
		<g>
			<path style="fill:#E0E0E0;" d="M303.336,187.387h-31.641c-1.312,0-2.376,1.064-2.376,2.376v22.019
				c0,1.313,1.064,2.376,2.376,2.376h31.641c1.312,0,2.376-1.064,2.376-2.376v-22.019
				C305.712,188.451,304.648,187.387,303.336,187.387z"/>
			<rect x="271.995" y="189.696" style="fill:#EBEBEB;" width="16.374" height="9.079"/>
			<g>
				<rect x="271.995" y="201.53" style="fill:#EBEBEB;" width="3.104" height="1.707"/>
				<rect x="271.995" y="204.401" style="fill:#EBEBEB;" width="3.104" height="1.707"/>
				<rect x="271.995" y="207.272" style="fill:#EBEBEB;" width="3.104" height="1.707"/>
				<rect x="271.995" y="210.143" style="fill:#EBEBEB;" width="3.104" height="1.707"/>
				<rect x="276.418" y="201.53" style="fill:#EBEBEB;" width="3.104" height="1.707"/>
				<rect x="276.418" y="204.401" style="fill:#EBEBEB;" width="3.104" height="1.707"/>
				<rect x="276.418" y="207.272" style="fill:#EBEBEB;" width="3.104" height="1.707"/>
				<rect x="276.418" y="210.143" style="fill:#EBEBEB;" width="3.104" height="1.707"/>
				<rect x="280.841" y="201.53" style="fill:#EBEBEB;" width="3.104" height="1.707"/>
				<rect x="280.841" y="204.401" style="fill:#EBEBEB;" width="3.104" height="1.707"/>
				<rect x="280.841" y="207.272" style="fill:#EBEBEB;" width="3.104" height="1.707"/>
				<rect x="280.841" y="210.143" style="fill:#EBEBEB;" width="3.104" height="1.707"/>
				<rect x="285.264" y="201.53" style="fill:#EBEBEB;" width="3.104" height="1.707"/>
				<rect x="285.264" y="204.401" style="fill:#EBEBEB;" width="3.104" height="1.707"/>
				<rect x="285.264" y="207.272" style="fill:#EBEBEB;" width="3.104" height="1.707"/>
				<rect x="285.264" y="210.143" style="fill:#EBEBEB;" width="3.104" height="1.707"/>
			</g>
			<rect x="294.227" y="187.387" style="fill:#F0F0F0;" width="8.924" height="24.463"/>
			<rect x="294.227" y="194.236" style="fill:#E6E6E6;" width="8.924" height="10.165"/>
			<polygon style="fill:#E0E0E0;" points="294.227,204.401 295.935,198.775 301.91,198.775 303.151,204.401 			"/>
		</g>
		<g>
			<polygon style="fill:#EBEBEB;" points="443.889,80.544 443.889,382.998 379.59,382.998 379.715,382.505 434.322,382.505 
				434.322,89.09 320.808,89.09 320.808,382.505 355.941,382.505 379.59,382.998 312.262,382.998 312.262,80.544 			"/>
			<polygon style="fill:#F0F0F0;" points="434.322,89.09 434.322,382.505 379.715,382.505 379.59,382.998 355.941,382.505 
				320.808,382.505 320.808,89.09 			"/>
			<rect x="320.808" y="89.09" style="fill:#F5F5F5;" width="113.514" height="293.415"/>
		</g>
		<polygon style="fill:#FFFFFF;" points="434.322,89.09 434.322,168.295 379.715,382.505 379.59,382.998 355.941,382.505 
			431.716,89.09 		"/>
		<rect x="320.807" y="204.825" style="fill:#FFFFFF;" width="13.313" height="43.812"/>
		<polygon style="fill:#FFFFFF;" points="396.588,89.089 320.807,382.509 344.455,382.997 419.379,89.089 		"/>
		<g>
			<g>
				<g>
					<path style="fill:#E0E0E0;" d="M261.208,343.632c-0.156,0-0.286-0.124-0.291-0.282c-0.879-26.062,7.066-36.006,7.146-36.103
						c0.102-0.124,0.286-0.143,0.41-0.039c0.124,0.103,0.142,0.286,0.04,0.41c-0.079,0.096-7.883,9.904-7.014,35.713
						c0.005,0.161-0.12,0.296-0.282,0.301C261.215,343.632,261.211,343.632,261.208,343.632z"/>
				</g>
				<g>
					<g>
						<path style="fill:#E0E0E0;" d="M264.92,343.632c-0.009,0-0.018,0-0.027-0.001c-0.16-0.015-0.279-0.157-0.264-0.317
							c0.696-7.622,3.431-13.444,8.127-17.305c7.325-6.021,16.999-5.091,17.096-5.082c0.16,0.017,0.276,0.16,0.26,0.32
							c-0.016,0.16-0.161,0.274-0.32,0.26c-0.095-0.01-9.536-0.911-16.67,4.957c-4.569,3.758-7.231,9.445-7.912,16.904
							C265.196,343.518,265.069,343.632,264.92,343.632z"/>
					</g>
					<g>
						<path style="fill:#F0F0F0;" d="M283.805,321.092c-1.411-2.84-13.11-4.778-6.416-10.943c6.694-6.164,6.673,7.047,9.653,6.997
							c4.172-0.071,3.36-17.739,10.239-13.179c6.879,4.56-6.796,11.771-4.605,15.036c2.012,2.999,14.152-6.703,14.424-0.775
							c0.272,5.928-12.932,1.541-13.776,5.117c-0.657,2.782,12.355,5.315,6.583,9.35c-5.772,4.036-7.62-8.209-10.797-7.415
							c-2.415,0.603,0.813,10.664-4.051,9.094C280.195,332.803,285.289,324.079,283.805,321.092z"/>
					</g>
				</g>
				<g>
					<g>
						<path style="fill:#E0E0E0;" d="M256.783,346.877c-0.148,0-0.274-0.112-0.29-0.262c-2.324-22.666-12.525-36.511-12.628-36.648
							c-0.097-0.129-0.07-0.312,0.059-0.408c0.129-0.097,0.311-0.069,0.408,0.059c0.104,0.138,10.4,14.113,12.741,36.938
							c0.016,0.16-0.1,0.303-0.26,0.319C256.803,346.876,256.793,346.877,256.783,346.877z"/>
					</g>
					<g>
						<path style="fill:#E6E6E6;" d="M246.611,318.562c-3.53,2.934-2.36,20.059-13.275,12.684
							c-10.914-7.375,7.702-11.749,6.637-15.929c-1.49-5.853-26.106,1.18-21.977-10.03c4.13-11.21,18.846,5.648,22.714,1.475
							c3.553-3.834-14.159-17.699-5.9-20.059c8.26-2.36,6.481,17.701,11.799,17.699c4.138-0.002,3.368-19.174,10.976-12.389
							c7.608,6.785-9.023,13.469-6.846,17.68c1.655,3.2,14.749-4.7,14.159,2.674C264.31,319.742,250.323,315.475,246.611,318.562z"
							/>
					</g>
				</g>
				<path style="fill:#F5F5F5;" d="M274.178,369.132l2.396-28.151h-34.071l2.396,28.151c0.647,7.604,7.008,13.447,14.64,13.447l0,0
					C267.17,382.579,273.531,376.736,274.178,369.132z"/>
			</g>
			<path style="fill:#F5F5F5;" d="M265.928,316.202c3.53,2.934,2.36,20.059,13.274,12.685c10.914-7.375-7.702-11.749-6.637-15.929
				c1.49-5.852,26.106,1.18,21.976-10.029c-4.13-11.209-18.845,5.648-22.714,1.475c-3.553-3.834,14.159-17.699,5.9-20.059
				c-8.26-2.36-6.482,17.701-11.799,17.699c-4.138-0.002-3.368-19.174-10.976-12.389c-7.608,6.785,9.023,13.469,6.846,17.679
				c-1.655,3.2-14.749-4.7-14.159,2.674C248.229,317.382,262.216,313.116,265.928,316.202z"/>
		</g>
	</g>
	<g>
		<rect x="38.899" y="244.002" style="fill:#EBEBEB;" width="137.647" height="137.647"/>
		<rect x="49.428" y="254.531" style="fill:#FAFAFA;" width="117.66" height="126.868"/>
		<rect x="56.519" y="307.271" style="fill:#E6E6E6;" width="3.976" height="14.424"/>
		<g>
			<rect x="54.531" y="300.574" style="fill:#FFFFFF;" width="3.976" height="28.333"/>
			<rect x="54.531" y="300.574" style="fill:#FFFFFF;" width="5.964" height="4.298"/>
			<rect x="54.531" y="324.589" style="fill:#FFFFFF;" width="5.964" height="4.298"/>
		</g>
	</g>
</g>
<g id="Background_Simple" style="display:none;">
	<g style="display:inline;">
		<g>
			<path style="fill:#407BFF;" d="M155.679,284.931c-1.692,11.53-2.445,23.37-0.055,34.776c2.389,11.406,8.202,22.422,17.623,29.28
				c17.659,12.856,42.012,8.249,63.373,3.686c33.585-7.174,69.39-12.689,101.595-0.763c14.913,5.523,28.9,14.733,44.77,15.757
				c15.018,0.969,29.826-5.808,40.924-15.972c11.098-10.164,18.865-23.465,25.028-37.195
				c22.555-50.249,24.977-109.206,6.618-161.136c-7.966-22.532-20.975-45.005-42.445-55.503
				c-21.762-10.641-48.742-11.567-71.38-2.947C253.97,128.334,167.627,203.512,155.679,284.931z"/>
		</g>
		<g style="opacity:0.9;">
			<path style="fill:#FFFFFF;" d="M155.679,284.931c-1.692,11.53-2.445,23.37-0.055,34.776c2.389,11.406,8.202,22.422,17.623,29.28
				c17.659,12.856,42.012,8.249,63.373,3.686c33.585-7.174,69.39-12.689,101.595-0.763c14.913,5.523,28.9,14.733,44.77,15.757
				c15.018,0.969,29.826-5.808,40.924-15.972c11.098-10.164,18.865-23.465,25.028-37.195
				c22.555-50.249,24.977-109.206,6.618-161.136c-7.966-22.532-20.975-45.005-42.445-55.503
				c-21.762-10.641-48.742-11.567-71.38-2.947C253.97,128.334,167.627,203.512,155.679,284.931z"/>
		</g>
	</g>
</g>
<g id="Shadow">
	<ellipse id="_x3C_Path_x3E__359_" style="fill:#F5F5F5;" cx="250" cy="415.693" rx="193.889" ry="11.323"/>
</g>
<g id="Character">
	<g>
		<g id="_x3C_group_x3E__1_">
			<path style="fill:#263238;" d="M412.485,171.389c-1.09,3.132-3.614,5.606-6.828,6.421c-0.016,0.004-0.032,0.008-0.049,0.012
				c-1.38,0.352-2.774,0.6-4.189,0.773c-0.226,0.036-0.462,0.064-0.689,0.091c-4.783,0.567-9.685,0.456-14.474,1.146
				c-0.236,0.037-0.481,0.074-0.716,0.11c-2.403,0.379-4.791,0.899-7.215,0.937c-0.539,0.01-1.071-0.01-1.613-0.057
				c-2.138-0.18-4.256-0.854-5.85-2.266c-2.113-1.877-2.979-4.679-3.552-7.492c1.443-0.449,3.036-0.941,4.788-1.515
				c12.719-4.182-1.162-11.177,3.341-22.364c6.289-15.637,31.984-14.536,31.556-3.862
				C415.046,145.315,416.196,160.728,412.485,171.389z"/>
			<g>
				<path style="fill:#263238;" d="M377.065,152.651c-0.584,2.441-0.778,4.984-1.656,7.335c-0.878,2.351-2.653,4.581-5.112,5.08
					c3.706,1.647,8.279-0.163,10.786-3.35c2.507-3.187,3.297-7.409,3.379-11.463c0.019-0.938,0.17-2.069-0.495-2.73
					C379.243,142.823,377.649,150.21,377.065,152.651z"/>
			</g>
			<g>
				<g>
					<path style="fill:#FFC3BD;" d="M373.512,194.405c-0.351,0.333-0.665,0.619-0.969,0.902c-0.257,0.234-0.515,0.468-0.79,0.706
						c-0.582,0.512-1.156,0.974-1.744,1.459c-1.167,0.928-2.352,1.86-3.563,2.721c-0.242,0.172-0.494,0.346-0.74,0.5
						c-0.24,0.181-0.485,0.344-0.731,0.498c-0.2,0.143-0.403,0.277-0.598,0.399c-1.813,1.202-3.654,2.324-5.549,3.38
						c-1.363,0.75-2.757,1.448-4.171,2.103c-1.317,0.613-2.662,1.184-4.019,1.708l-2.135,0.771
						c-0.731,0.245-1.461,0.451-2.175,0.683l-1.1,0.33l-1.184,0.301c-0.782,0.189-1.569,0.36-2.336,0.487
						c-5.943,0.857-11.971,0.918-17.931,0.177c-2.897-0.307-5.774-0.736-8.617-1.23c-2.003-0.347-3.982-0.758-5.968-1.245
						c-0.832-0.198-1.669-0.414-2.51-0.649l0.869-4.473c0.793,0.071,1.596,0.139,2.398,0.208c1.961,0.162,3.947,0.309,5.911,0.403
						c2.768,0.123,5.542,0.274,8.3,0.273c5.34,0.116,10.685-0.342,15.934-1.389c0.609-0.14,1.203-0.305,1.794-0.479l0.86-0.275
						l0.919-0.356c0.606-0.236,1.207-0.413,1.84-0.704l1.778-0.806c2.399-1.104,4.752-2.323,7.036-3.673
						c1.573-0.934,3.123-1.93,4.643-2.969c0.303-0.205,0.603-0.42,0.904-0.635c0.186-0.12,0.37-0.25,0.552-0.389
						c0.193-0.132,0.394-0.275,0.585-0.416c0.058-0.042,0.117-0.085,0.175-0.127c1.027-0.731,2.023-1.513,3.01-2.293l1.518-1.261
						c0.488-0.413,1.023-0.876,1.411-1.217l4.742,4.878L373.512,194.405z"/>
					<g>
						<path style="fill:#FFC3BD;" d="M310.926,204.445l-8.906-2.765l1.634,8.876c0,0,4.775-0.021,7.058-2.791L310.926,204.445z"/>
						<polygon style="fill:#FFC3BD;" points="295.767,203.501 297.474,209.282 303.653,210.557 302.019,201.681 						"/>
						<path style="fill:#FFC3BD;" d="M302.802,204.181c0,0-1.615-2.541-1.513-5.176c0.092-2.382,1.443-2.211,1.443-2.211
							s-0.255,2.823,3.448,7.598l0.089,0.124L302.802,204.181z"/>
					</g>
				</g>
				<g>
					<path style="fill:#407BFF;" d="M380.031,191.949c-0.769,2.323-3.662,4.492-6.691,6.197c-2.852,1.625-5.821,2.831-7.205,3.361
						c-0.509,0.194-0.805,0.301-0.805,0.301l-0.355-0.618l-4.555-8.048l-0.753-1.333c0,0,0.244-0.25,0.663-0.667
						c1.667-1.626,6.149-5.888,10.018-8.251c1.885-1.141,3.621-1.831,4.813-1.55C380.564,182.579,381.541,187.435,380.031,191.949z"
						/>
					<path style="opacity:0.3;enable-background:new    ;" d="M380.031,191.949c-0.769,2.323-3.662,4.492-6.691,6.197
						c-2.852,1.625-5.821,2.831-7.205,3.361c-0.509,0.194-0.805,0.301-0.805,0.301l-0.355-0.618l-4.555-8.048l-0.753-1.333
						c0,0,0.244-0.25,0.663-0.667c1.667-1.626,6.149-5.888,10.018-8.251c1.885-1.141,3.621-1.831,4.813-1.55
						C380.564,182.579,381.541,187.435,380.031,191.949z"/>
				</g>
				<g>
					<path style="fill:#407BFF;" d="M366.135,201.507c0.112,0.363-0.054,0.741-0.399,0.927c-0.364,0.19-0.819,0.071-1.044-0.275
						l-0.315-0.569l-4.509-8.059l-0.794-1.43c-0.215-0.388-0.084-0.875,0.304-1.09c0,0,0,0,0.009-0.002
						c0.07-0.035,0.132-0.059,0.206-0.076c0.258-0.059,0.539,0.022,0.738,0.21c0.049,0.047,0.103,0.112,0.139,0.182l0.71,1.275
						l4.527,8.093l0.379,0.68C366.105,201.417,366.125,201.461,366.135,201.507z"/>
				</g>
			</g>
			<path style="fill:#407BFF;" d="M414.949,180.331c3.187,1.466,3.58,2.312,3.077,4.614c-0.976,4.473-1.78,8.431-2.441,11.986
				c-0.159,0.858-0.31,1.697-0.452,2.508c-0.033,0.153-0.056,0.305-0.079,0.458l0,0.01c-0.032,0.162-0.056,0.305-0.088,0.458
				c-0.039,0.238-0.078,0.477-0.126,0.706c-3.154,7.259-4.445,16.09-3.626,29.101c0.062,0.983,0.08,1.987,0.125,3.008l-1.62,0.01
				l-1.639,0.01l-10.703,0.027l-1.629,0.01l-12.494,0.081l-1.629,0.02l-3.543,0.021c-0.095-0.555-0.181-1.093-0.275-1.629l0-0.01
				c-0.912-5.444-1.681-10.306-2.317-14.632c-0.362-2.469-0.69-4.77-0.973-6.901c0,0-5.339-6.586-3.388-10.624
				c1.148-2.371,1.678-16.877,1.883-17.5c0.198-0.557,0.366-0.619,0.366-0.619c0.978-0.214,1.965-0.42,2.954-0.606
				c2.907-0.586,5.836-1.078,8.778-1.475c1.028-0.141,2.046-0.271,3.075-0.383c4.044-0.313,8.105-0.409,12.165-0.278
				c0.256,0,0.502,0.001,0.759,0.021c0.987,0.031,1.983,0.082,2.97,0.141c1.177,0.063,2.365,0.153,3.534,0.254
				c2.347,0.211,2.364,0.125,4.689,0.498C412.302,179.614,414.935,180.325,414.949,180.331z"/>
			<path style="fill:#FFC3BD;" d="M398.565,161.138c-0.831,5.156-1.517,14.559,2.186,17.854c0,0-1.899,11.098-11.261,12.774
				c-4.522-1.133-4.644-12.231-4.644-12.231c5.628-1.566,3.745-7.186,4.147-12.876L398.565,161.138z"/>
			<path style="opacity:0.2;enable-background:new    ;" d="M387.893,161.139c0.959,4.077,2.021,10.917,0.557,15.29
				c3.013-0.633,7.438-3.03,8.065-5.649c0.178-1.79,0.213-3.592,0.104-5.388L387.893,161.139z"/>
			<path style="fill:#FFC3BD;" d="M405.346,154.405c-1.123,8.495-1.413,12.111-6.025,16.185c-6.939,6.128-17.12,2.893-18.562-5.754
				c-1.3-7.792,0.75-20.362,9.337-23.178c6.13-2.03,12.744,1.294,14.774,7.423C405.438,150.796,405.601,152.618,405.346,154.405z"/>
			<path style="fill:#263238;" d="M403.313,144.241c-5.23,5.73-21.84,6.798-24.363,5.218c5.104-7.113,12.976-11.133,17.45-10.195
				C400.872,140.201,403.313,144.241,403.313,144.241z"/>
			<g>
				<path style="fill:#263238;" d="M406.871,143.304c-0.024,0.008-0.047-0.002-0.072-0.002c-0.048,0.062-0.087,0.13-0.137,0.19
					L406.871,143.304z"/>
				<path style="fill:#263238;" d="M407.017,143.172l-0.147,0.132C406.937,143.282,406.995,143.238,407.017,143.172z"/>
				<path style="fill:#263238;" d="M406.798,143.302c0.016-0.021,0.03-0.043,0.046-0.064c-0.048,0.02-0.094,0.045-0.143,0.062
					C406.732,143.316,406.765,143.303,406.798,143.302z"/>
				<path style="fill:#263238;" d="M407.37,137.683c0.874,1.756,0.644,3.986-0.525,5.555c1.035-0.423,1.816-1.425,1.949-2.538
					C408.932,139.536,408.356,138.316,407.37,137.683z"/>
			</g>
			<path style="fill:#FFC3BD;" d="M407.839,162.785c-0.919,1.381-2.348,2.342-3.974,2.672c-2.151,0.413-3.051-1.551-2.305-3.49
				c0.666-1.753,2.609-4.039,4.689-3.627c1.514,0.362,2.448,1.882,2.086,3.396C408.244,162.116,408.075,162.473,407.839,162.785z"/>
			<path style="fill:#263238;" d="M400.185,144.901c-1.289,1.507-1.15,3.666-1.123,5.649c0.08,5.803,0.769,13.082-3.661,15.621
				c5.239-1.46,9.431-3.934,12.102-8.671c2.111-3.745,2.022-6.03,0.401-10.039C406.7,144.483,403.093,141.503,400.185,144.901z"/>
			<path style="opacity:0.1;enable-background:new    ;" d="M407.761,186.133c0,0-0.364,15.588,1.038,22.496
				c1.403,6.908,2.428,5.191,2.428,5.191s0.674-10.727,1.97-13.72C414.493,197.106,407.761,186.133,407.761,186.133z"/>
			<g>
				<g>
					<path style="fill:#FFC3BD;" d="M422.931,199.083c-0.089,1.052-0.154,2.345-0.21,3.535c-0.056,1.189-0.088,2.44-0.087,3.664
						c0.016,2.449,0.009,4.904,0.191,7.338c0.283,4.815,1.027,9.591,2.222,14.264c0.324,1.102,0.657,2.28,1.037,3.349
						c0.379,1.07,0.83,2.175,1.296,3.282c0.968,2.224,2.075,4.482,3.213,6.728c2.284,4.485,4.721,9.006,7.123,13.501l-3.834,2.697
						c-3.457-3.976-6.671-8.156-9.625-12.519c-1.486-2.186-2.908-4.426-4.227-6.822c-0.659-1.205-1.302-2.424-1.882-3.764
						c-0.58-1.34-1.009-2.616-1.502-3.934c-1.697-5.221-2.776-10.623-3.216-16.095c-0.259-2.697-0.38-5.404-0.364-8.113
						c-0.011-1.367,0.035-2.699,0.105-4.051c0.07-1.352,0.151-2.659,0.324-4.167L422.931,199.083z"/>
					<path style="fill:#FFC3BD;" d="M436.463,253.765l6.495,4.552l-7.932,5.081c0,0-3.526-4.799-1.947-9.681L436.463,253.765z"/>
					<polygon style="fill:#FFC3BD;" points="445.165,265.81 438.352,269.412 435.033,263.406 442.958,258.317 					"/>
				</g>
				<path style="fill:#407BFF;" d="M424.474,187.526c1.499,11.27-1.881,13.102-1.881,13.102l-10.55,1.015
					c0,0-5.189-15.71-2.132-19.555C413.095,178.082,423.743,182.061,424.474,187.526z"/>
				<path style="opacity:0.3;enable-background:new    ;" d="M424.474,187.526c1.499,11.27-1.881,13.102-1.881,13.102l-10.55,1.015
					c0,0-5.189-15.71-2.132-19.555C413.095,178.082,423.743,182.061,424.474,187.526z"/>
				<path style="fill:#407BFF;" d="M423.591,200.475L423.591,200.475c0.041,0.451-0.291,0.85-0.742,0.891
					c-0.002,0-0.003,0-0.005,0.001l-10.726,0.985c-0.451,0.041-0.85-0.291-0.891-0.742c0-0.002,0-0.003-0.001-0.005l0,0
					c-0.046-0.445,0.276-0.843,0.721-0.89c0.009-0.001,0.017-0.002,0.026-0.002l10.718-0.979
					C423.143,199.694,423.544,200.023,423.591,200.475z"/>
			</g>
			<path style="fill:#263238;" d="M377.818,231.689l-1.463,3.194c-0.113,0.25,0.157,0.496,0.587,0.467l34.411-1.558
				c0.32-0.005,0.574-0.182,0.59-0.369l0.203-3.149c0.016-0.219-0.265-0.398-0.614-0.384l-33.137,1.487
				C378.162,231.377,377.945,231.494,377.818,231.689z"/>
			<path style="fill:#407BFF;" d="M382.743,235.474l-0.943,0.031c-0.191,0.007-0.338-0.086-0.33-0.196l0.301-4.09
				c-0.034-0.107,0.165-0.223,0.355-0.23l0.953-0.034c0.181-0.004,0.338,0.086,0.32,0.199l-0.291,4.087
				C383.053,235.392,382.904,235.487,382.743,235.474z"/>
			<path style="fill:#407BFF;" d="M408.9,234.52l-0.943,0.031c-0.191,0.007-0.338-0.086-0.333-0.205l0.301-4.09
				c-0.034-0.107,0.165-0.223,0.355-0.23l0.953-0.034c0.175-0.056,0.338,0.086,0.323,0.208l-0.291,4.087
				C409.26,234.406,409.091,234.513,408.9,234.52z"/>
			<path style="fill:#407BFF;" d="M396.905,235.007l-0.953,0.034c-0.175,0.055-0.338-0.086-0.323-0.208l0.291-4.087
				c-0.034-0.107,0.178-0.217,0.368-0.224l0.94-0.041c0.191-0.007,0.338,0.086,0.333,0.205l-0.301,4.09
				C397.255,234.896,397.06,234.957,396.905,235.007z"/>
			<path style="fill:#263238;" d="M392.246,155.887c-0.049,0.69-0.461,1.217-0.906,1.197c-0.445-0.02-0.785-0.619-0.736-1.309
				c0.049-0.69,0.461-1.217,0.906-1.197C391.955,154.597,392.295,155.196,392.246,155.887z"/>
			<path style="fill:#263238;" d="M384.404,155.339c-0.059,0.693-0.461,1.217-0.916,1.2c-0.455-0.016-0.785-0.619-0.729-1.322
				c0.056-0.703,0.451-1.214,0.906-1.197C384.12,154.036,384.479,154.629,384.404,155.339z"/>
			<path style="fill:#263238;" d="M383.864,154.074l-1.622-0.557C382.242,153.517,382.981,154.804,383.864,154.074z"/>
			<path style="fill:#ED847E;" d="M386.392,156.68c-0.732,1.538-1.669,2.97-2.787,4.256c0.68,0.56,1.572,0.791,2.438,0.631
				L386.392,156.68z"/>
			<path style="fill:#263238;" d="M389.579,164.41c-0.423,0.053-0.851,0.063-1.276,0.029c-0.096-0.005-0.17-0.086-0.165-0.182
				c0-0.001,0-0.001,0-0.002c0.014-0.091,0.094-0.158,0.186-0.155c1.761,0.167,3.495-0.522,4.662-1.851
				c0.045-0.078,0.142-0.109,0.224-0.071c0.078,0.032,0.115,0.122,0.083,0.2c-0.003,0.008-0.008,0.016-0.012,0.024
				C392.355,163.529,391.027,164.249,389.579,164.41z"/>
			<path style="fill:#263238;" d="M395.481,151.189c-0.118,0.015-0.235-0.034-0.308-0.127c-0.634-0.86-1.647-1.358-2.715-1.336
				c-0.186,0.012-0.348-0.126-0.367-0.312c-0.017-0.185,0.12-0.349,0.305-0.366c0.002,0,0.005,0,0.007-0.001
				c1.294-0.042,2.526,0.552,3.299,1.59c0.113,0.148,0.09,0.358-0.052,0.477C395.601,151.152,395.543,151.178,395.481,151.189z"/>
			<path style="fill:#263238;" d="M381.578,150.407c-0.115,0.035-0.239,0.005-0.325-0.079c-0.135-0.128-0.142-0.341-0.014-0.476
				c0.001-0.001,0.001-0.001,0.002-0.002c0.87-0.957,2.153-1.427,3.436-1.259c0.179,0.024,0.304,0.189,0.28,0.368
				c-0.001,0.009-0.003,0.018-0.005,0.027c-0.036,0.183-0.213,0.302-0.396,0.266c-0.001,0-0.001,0-0.002-0.001
				c-1.057-0.12-2.108,0.277-2.822,1.065C381.689,150.359,381.637,150.391,381.578,150.407z"/>
			<g>
				<path style="fill:#407BFF;" d="M362.006,408.713c-0.019-0.009-0.029-0.008-0.057-0.017c-0.239-0.067-0.947-0.26-1.758-0.421
					c-1.307-0.266-2.897-0.466-3.382-0.004c-0.156,0.138-0.205,0.367-0.141,0.564c0.07,0.377,0.318,0.69,0.655,0.858
					c0.654,0.271,1.376,0.321,2.062,0.155c0.743-0.149,1.475-0.355,2.176-0.636c0.15-0.053,0.28-0.105,0.42-0.176l0.009,0
					c0.009,0,0.028-0.001,0.038-0.011c0.065-0.021,0.11-0.089,0.098-0.165C362.133,408.793,362.083,408.729,362.006,408.713z
					 M357.529,409.373c-0.26-0.123-0.439-0.363-0.487-0.637c-0.031-0.084-0.006-0.18,0.058-0.239
					c0.111-0.089,0.241-0.141,0.384-0.146l0.001,0.028c1.344-0.047,2.695,0.123,3.988,0.503
					C360.425,409.271,358.456,409.861,357.529,409.373z"/>
				<g>
					<polygon style="fill:#FFC3BD;" points="372.949,410.948 364.68,411.424 362.926,390.675 371.185,390.197 					"/>
					<polygon style="fill:#FFC3BD;" points="429.76,396.823 421.743,399.906 414.853,381.045 422.868,377.971 					"/>
					<path style="fill:#263238;" d="M421.458,399.184l7.553-6.068c0.269-0.217,0.657-0.202,0.909,0.033l6.455,5.85
						c0.54,0.536,0.544,1.409,0.008,1.949c-0.039,0.039-0.079,0.075-0.122,0.109c-2.665,2.066-4.064,2.935-7.349,5.608
						c-2.048,1.678-7.044,6.491-9.873,8.754c-2.829,2.263-6.052-0.973-5.039-2.158c4.37-5.384,6.101-9.84,6.675-12.755
						C420.777,399.99,421.053,399.522,421.458,399.184z"/>
					<path style="fill:#263238;" d="M363.605,407.431l10.096-1.668c0.387-0.068,0.771,0.136,0.932,0.495l3.515,7.629
						c0.301,0.638,0.027,1.398-0.611,1.699c-0.112,0.053-0.232,0.089-0.355,0.108c-3.557,0.612-5.241,0.851-9.683,1.608
						c-2.742,0.449-10.586,3.062-14.387,2.629c-3.802-0.433-4.077-4.257-2.494-4.425c7.065-0.752,9.899-4.937,11.683-7.272
						C362.619,407.811,363.085,407.525,363.605,407.431z"/>
					<polygon style="opacity:0.2;enable-background:new    ;" points="362.924,390.685 363.83,401.376 372.17,401.746 
						371.193,390.209 					"/>
					<polygon style="opacity:0.2;enable-background:new    ;" points="423.697,380.198 415.68,383.281 419.24,392.995 
						427.255,389.922 					"/>
					<g>
						<path style="fill:#407BFF;" d="M377.414,234.905c0,0-20.304,45.221-21.17,82.875c-0.582,25.221,3.715,77.509,3.715,77.509
							l14.572,3.073c0,0,0.776-53.578,2.642-74.273c3.188-35.411,25.88-90.087,25.88-90.087L377.414,234.905z"/>
						<path style="opacity:0.4;fill:#FFFFFF;" d="M377.414,234.905c0,0-20.304,45.221-21.17,82.875
							c-0.582,25.221,3.715,77.509,3.715,77.509l14.572,3.073c0,0,0.776-53.578,2.642-74.273
							c3.188-35.411,25.88-90.087,25.88-90.087L377.414,234.905z"/>
					</g>
					<path style="opacity:0.2;enable-background:new    ;" d="M389.854,251.64l2.716,10.367
						c-4.49,12.881-8.332,25.978-11.511,39.244C377.903,281.542,386.069,260.479,389.854,251.64z"/>
					<polygon style="fill:#407BFF;" points="357.277,397.642 375.781,399.059 376.04,392.025 356.592,391.223 					"/>
					<path style="fill:#407BFF;" d="M385.067,234.724c0,0-4.136,51.418,3.464,84.33c6.138,26.58,28.126,69.905,28.126,69.905
						l10.024-6.387c0,0-7.844-33.829-12.852-51.712c-12.286-43.863,9.853-68.842-1.397-97.237L385.067,234.724z"/>
					<path style="opacity:0.4;fill:#FFFFFF;" d="M385.067,234.724c0,0-4.136,51.418,3.464,84.33
						c6.138,26.58,28.126,69.905,28.126,69.905l10.024-6.387c0,0-7.844-33.829-12.852-51.712
						c-12.286-43.863,9.853-68.842-1.397-97.237L385.067,234.724z"/>
					<polygon style="fill:#407BFF;" points="414.73,390.703 428.76,385.649 427.531,379.793 411.952,385.927 					"/>
					<path style="fill:#407BFF;" d="M421.457,400.341c-0.01-0.009-0.01-0.009-0.019-0.009c-0.01-0.009-0.02-0.018-0.049-0.036
						c-0.029-0.009-0.076-0.007-0.114,0.004c-0.075,0.021-0.29,0.095-0.59,0.191c-0.253,0.094-0.58,0.21-0.907,0.345l-0.009,0
						c-0.915,0.392-1.919,0.93-2.088,1.514c-0.058,0.239,0.008,0.483,0.175,0.648c0.168,0.212,0.411,0.364,0.678,0.431
						c0.095,0.006,0.199-0.007,0.302-0.03c0.453-0.063,0.905-0.401,1.315-0.861l0.009-0.01c0.538-0.587,0.994-1.362,1.286-1.94
						c0.018-0.029,0.027-0.048,0.035-0.068c0.009-0.01,0.009-0.019,0.008-0.029c0.009-0.019,0.008-0.029,0.008-0.048
						C421.497,400.406,421.487,400.368,421.457,400.341z M420.98,400.784c-0.009,0-0.009,0-0.019,0.01
						c-0.196,0.348-0.384,0.667-0.573,0.939c-0.559,0.815-1.11,1.309-1.571,1.391c-0.274,0.029-0.553-0.094-0.713-0.325
						c-0.088-0.082-0.13-0.204-0.106-0.318c0.16-0.565,1.559-1.192,2.588-1.56c0.131-0.052,0.262-0.094,0.374-0.127
						c0-0.009,0.009-0.029,0.018-0.038L420.98,400.784z"/>
					<path style="fill:#407BFF;" d="M421.438,400.332c-0.01-0.009-0.02-0.018-0.049-0.036c-0.078-0.073-0.254-0.209-0.497-0.38
						c-0.661-0.469-1.813-1.177-2.652-1.053c-0.302,0.039-0.571,0.21-0.742,0.462c-0.209,0.254-0.206,0.604-0.017,0.853
						c0.314,0.311,0.719,0.505,1.156,0.556c0.372,0.063,0.752,0.106,1.131,0.102l0.009,0c0.284,0,0.568-0.02,0.842-0.049
						c0.264-0.038,0.518-0.094,0.771-0.16c0.018-0.01,0.037-0.02,0.055-0.04c0.018-0.029,0.027-0.048,0.035-0.068
						c0.009-0.01,0.009-0.019,0.008-0.029c0.009-0.019,0.008-0.029,0.008-0.048C421.497,400.406,421.477,400.369,421.438,400.332z
						 M417.759,399.97c-0.05-0.074-0.13-0.204,0.022-0.446c0.107-0.184,0.302-0.295,0.51-0.321c0.151-0.015,0.312-0.011,0.465,0.021
						c0.718,0.212,1.403,0.557,1.997,1.019c0.068,0.045,0.136,0.099,0.205,0.154c-0.085,0.012-0.169,0.034-0.255,0.037
						C419.694,400.583,418.145,400.448,417.759,399.97z"/>
					<path style="fill:#407BFF;" d="M362.209,408.819c-0.01-0.028-0.052-0.131-0.134-0.289c-0.409-0.857-1.689-3.285-3.329-2.782
						c-0.478,0.14-0.592,0.409-0.585,0.608c0.02,0.577,1.004,1.348,2.029,1.918c0.445,0.25,0.897,0.452,1.282,0.608
						c0.096,0.025,0.192,0.06,0.268,0.085c0.086,0.025,0.163,0.051,0.239,0.067l0.009,0l0.067,0.017
						c0.038-0.011,0.084-0.031,0.121-0.061C362.214,408.942,362.231,408.885,362.209,408.819z M358.512,406.354
						c-0.011-0.047-0.016-0.17,0.322-0.267l0.141-0.043c1.272-0.197,2.356,1.783,2.744,2.575
						C360.425,408.19,358.534,406.969,358.512,406.354z"/>
				</g>
			</g>
			<path style="fill:#263238;" d="M391.706,154.622l-1.622-0.558C390.084,154.065,390.835,155.391,391.706,154.622z"/>
		</g>
	</g>
</g>
<g id="Graphics">
</g>
<g id="Fingerprint">
	<g>
		<g>
			<path style="fill:#407BFF;" d="M190.355,114.971l2.47,0.451l-2.04-1.579c-0.548-0.424-1.104-0.84-1.66-1.247l-0.13-0.096
				l-0.154-0.029c-12.669-2.438-28.094-6.904-45.85-13.274l-0.154-0.056l-0.156,0.021c-0.589,0.079-1.176,0.176-1.762,0.289
				l-2.215,0.43l2.218,0.805C160.273,107.707,176.905,112.513,190.355,114.971z"/>
			<path style="fill:#407BFF;" d="M199.484,123.074l1.992,0.469l-1.446-1.516c-0.376-0.394-0.768-0.779-1.17-1.165l-0.142-0.136
				l-0.188-0.045c-17.684-4.201-40.056-10.356-66.492-18.295l-0.234-0.07l-0.21,0.095c-0.387,0.175-0.772,0.358-1.157,0.551
				l-1.422,0.71l1.614,0.485C158.225,112.451,181.391,118.816,199.484,123.074z"/>
			<path style="fill:#407BFF;" d="M207.882,132.681l1.959,0.699l-1.291-1.667c-0.192-0.248-0.387-0.49-0.581-0.732l-0.256-0.32
				l-0.022-0.254l-0.437-0.154c-15.289-5.401-42.208-13.758-83.618-22.902l-0.277-0.061l-0.217,0.156
				c-0.304,0.219-0.601,0.438-0.903,0.674l-1.073,0.837l1.411,0.311C165.028,118.617,192.397,127.16,207.882,132.681z"/>
			<path style="fill:#407BFF;" d="M215.622,143.817l2.001,1.026l-1.208-1.902c-0.29-0.457-0.58-0.914-0.879-1.372l-0.107-0.165
				l-0.175-0.088c-18.409-9.272-50.482-21.634-98.736-27.873l-0.298-0.039l-0.203,0.199c-0.258,0.254-0.515,0.507-0.772,0.779
				l-0.88,0.93l1.341,0.171C164.857,121.751,197.17,134.351,215.622,143.817z"/>
			<path style="fill:#407BFF;" d="M202.62,144.397L202.62,144.397c7,3.46,13.66,7.313,19.794,11.451l1.955,1.319l-1.053-2.089
				c-0.21-0.416-0.424-0.82-0.639-1.227l-0.095-0.18l-0.018-0.208l-0.291-0.192c-5.844-3.863-12.166-7.485-18.788-10.763
				c-19.01-9.413-50.622-20.896-93.267-22.144l-0.304-0.009l-0.18,0.229c-0.213,0.272-0.436,0.543-0.666,0.823l-0.855,1.04
				l1.409,0.036C152.18,123.593,183.685,135.013,202.62,144.397z"/>
			<path style="fill:#407BFF;" d="M113.899,140.132l0.643,0.055l0.006-2.141l-0.65-0.055c-6.389-0.537-11.931,0.47-15.455,1.409
				l-0.265,0.07l-0.112,0.247c-0.152,0.339-0.304,0.686-0.455,1.042l-0.555,1.307l1.38-0.394
				C101.953,140.67,107.489,139.588,113.899,140.132z"/>
			<path style="fill:#407BFF;" d="M203.333,151.418c8.836,4.92,17.194,10.561,24.84,16.767l1.865,1.513l-0.887-2.192
				c-0.222-0.548-0.461-1.089-0.699-1.62l-0.072-0.16l-0.139-0.111c-7.428-5.918-15.484-11.311-23.945-16.028
				c-21.126-11.776-55.572-25.091-99.69-21.652l-0.297,0.023l-0.153,0.244c-0.182,0.289-0.363,0.587-0.544,0.885l0.536,0.407
				c0,0,0,0,0,0l-0.561-0.367l-0.68,1.119l1.349-0.111C148.112,126.537,182.341,139.722,203.333,151.418z M104.149,129.494
				L104.149,129.494L104.149,129.494L104.149,129.494z"/>
			<path style="fill:#407BFF;" d="M136.675,136.012c22.93,2.53,57.976,11.538,94.716,40.086l1.709,1.328l-0.736-1.997
				c-0.132-0.359-0.275-0.723-0.415-1.085l-0.121-0.311l-0.019-0.218l-0.252-0.193c-36.835-28.275-71.92-37.221-94.867-39.747
				c-15.271-1.676-27.77-0.864-35.566,0.113l-0.305,0.038l-1.222,2.345l1.315-0.171C108.749,135.18,121.313,134.32,136.675,136.012z
				"/>
			<path style="fill:#407BFF;" d="M94.935,218.93l-2.048-0.836l-0.207,0.577c-0.042,0.117-4.283,12.731-6.051,30.023l-0.01,0.099
				l0.021,0.101c0.191,0.898,0.399,1.797,0.616,2.696l0.939,3.899l0.332-3.887c1.571-18.418,6.141-31.923,6.193-32.074
				L94.935,218.93z"/>
			<path style="fill:#407BFF;" d="M91.583,182.645l-0.017-0.643l-2.155-0.129l0.018,0.642c0.374,13.491-1.172,29.874-5.014,53.122
				l-0.014,0.098l0.011,0.091c0.121,0.992,0.258,1.968,0.404,2.943l0.61,4.072l0.667-3.952
				C90.273,214.105,91.966,196.758,91.583,182.645z"/>
			<polygon style="fill:#407BFF;" points="97.454,212.123 100.216,203.436 98.152,202.642 95.401,211.325 			"/>
			<path style="fill:#407BFF;" d="M91.924,176.971c0.817-6.645,5.272-10.948,5.309-10.984l0.47-0.423l-1.559-1.612l-0.447,0.405
				c-0.05,0.045-4.996,4.714-5.914,12.168l-0.077,0.628l2.139,0.45L91.924,176.971z"/>
			<path style="fill:#407BFF;" d="M92.768,194.659l2.159,0.257l0.023-0.637c0.204-5.825,6.035-13.962,6.291-14.317l0.354-0.497
				l-1.767-1.348l-0.365,0.492c-0.263,0.355-6.435,8.757-6.672,15.41L92.768,194.659z"/>
			<path style="fill:#407BFF;" d="M105.363,184.382l0.456-0.441l-1.643-1.577l-0.428,0.458c-0.77,0.825-7.626,8.507-11.268,24.234
				l-0.143,0.617l2.109,0.642l0.141-0.61C98.269,191.798,105.301,184.446,105.363,184.382z"/>
			<polygon style="fill:#407BFF;" points="106.604,192.535 104.74,191.293 100.044,198.938 101.908,200.178 			"/>
			<path style="fill:#407BFF;" d="M107.799,166.195l0.595-0.189l-0.801-2.056l-0.602,0.191c-0.457,0.145-11.217,3.671-14.2,14.791
				l-0.163,0.609l2.083,0.71l0.162-0.603C97.592,169.535,107.383,166.326,107.799,166.195z"/>
			<path style="fill:#407BFF;" d="M110.993,152.135l0.635-0.092l-0.507-2.122l-0.624,0.09c-10.184,1.475-15.985,5.15-19.058,7.974
				l-0.209,0.201l0.016,0.18l-1.285,4.453l1.904-2.059C94.199,158.235,99.789,153.756,110.993,152.135z"/>
			<path style="fill:#407BFF;" d="M139.708,143.954c22.868,0.887,57.876,8.686,94.79,40.803l1.729,1.505l-0.718-2.129
				c-0.165-0.491-0.331-0.982-0.504-1.466l-0.018-0.204l-0.222-0.191c-37.109-31.855-72.254-39.586-95.203-40.462
				c-23.53-0.914-40.278,4.9-44.85,6.701l-0.233,0.092l-0.091,0.232c-0.115,0.295-0.223,0.602-0.33,0.906l-0.59,1.664l1.416-0.589
				C98.041,149.502,115.037,142.999,139.708,143.954z"/>
			<path style="fill:#407BFF;" d="M142.428,149.738c-26.124,0.989-43.732,11.584-44.477,12.04l-0.538,0.326l1.269,1.839l0.523-0.32
				c0.72-0.44,17.943-10.79,43.527-11.74c22.687-0.861,57.513,5.672,94.555,41.643l1.704,1.656l-0.656-2.227
				c-0.16-0.544-0.328-1.081-0.496-1.617l-0.055-0.174l-0.135-0.129C200.382,155.351,165.298,148.887,142.428,149.738z"/>
			<path style="fill:#407BFF;" d="M190.809,164.12c-14.965-6.072-30.278-8.238-45.522-6.44
				c-25.898,3.067-42.838,16.812-42.998,16.949l-0.455,0.392l1.431,1.691l0.479-0.391c0.165-0.135,16.802-13.529,41.982-16.504
				c22.445-2.664,56.982,2.561,94.042,42.529l1.714,1.849l-0.634-2.376c-0.155-0.579-0.308-1.149-0.47-1.718l-0.047-0.166
				l-0.12-0.128C224.425,183.025,207.804,171.018,190.809,164.12z"/>
			<path style="fill:#407BFF;" d="M169.951,164.398c-37.01-3.361-63.025,22.786-63.283,23.051l-0.435,0.445l1.618,1.546l0.426-0.435
				c0.252-0.258,25.67-25.747,61.667-22.467c24.841,2.265,49.071,17.283,72.018,44.637l1.739,2.073l-0.632-2.561
				c-0.141-0.574-0.274-1.139-0.408-1.713l-0.016-0.18l-0.147-0.173C219.443,181.567,195.036,166.689,169.951,164.398z"/>
			<path style="fill:#407BFF;" d="M107.991,204.689c17.838-25.592,53.81-42.383,93.968-22.2
				c20.889,10.492,29.629,22.949,39.751,37.373c0.961,1.366,1.942,2.757,2.94,4.157l1.639,2.298l-0.488-2.699
				c-0.116-0.647-0.232-1.284-0.349-1.871l-0.016-0.183l-0.11-0.156c-0.636-0.9-1.263-1.792-1.886-2.684
				c-10.318-14.684-19.229-27.366-40.644-38.13c-41.306-20.761-78.286-3.525-96.611,22.768
				c-16.748,24.021-15.551,51.648-13.347,65.978l0.036,0.135c0.517,1.378,1.04,2.74,1.58,4.083l1.231-0.262
				C90.754,247.992,95.24,222.985,107.991,204.689z"/>
			<path style="fill:#407BFF;" d="M195.641,273.43c-3.789-9.764-5.589-10.789-6.963-10.448c-3.496,0.836-0.259,13.568-0.225,13.696
				c1.8,6.893,30.275,22.699,42.434,29.174l0.554,0.296l1.012-1.814L231.826,304c-19.131-10.213-40.025-22.85-41.295-27.688
				c-1.418-5.446-1.457-9.707-1.157-10.985c0.547,0.613,1.883,2.579,4.264,8.714c5.672,14.611,27.537,23.106,40.065,26.87
				l0.49,0.147l0.224-0.426c0.141-0.268,0.274-0.537,0.409-0.811l0.344-0.698l-0.79-0.24
				C222.161,295.172,200.881,286.929,195.641,273.43z"/>
			<path style="fill:#407BFF;" d="M198.55,269.99c-3.843-8.862-6.863-12.749-9.777-12.559c-2.983,0.138-4.97,4.479-6.444,14.077
				c-1.983,12.882,34.392,33.276,45.588,39.22l0.505,0.268l0.301-0.435c0.166-0.24,0.322-0.489,0.47-0.728l0.36-0.583l-0.653-0.349
				c-22.389-11.952-45.822-27.919-44.443-36.885c1.714-11.118,3.793-12.41,4.653-12.448c0.623,0,3.002,0.802,7.47,11.116
				c4.482,10.436,17.539,19.423,38.809,26.71l0.539,0.184l0.217-0.489c0.055-0.125,0.113-0.247,0.171-0.37
				c0.061-0.131,0.123-0.261,0.182-0.394l0.294-0.661l-0.728-0.248C215.672,288.455,202.7,279.663,198.55,269.99z"/>
			<path style="fill:#407BFF;" d="M201.458,266.55c-4.85-10.156-9.318-15.115-13.717-15.162c-4.369,0-8.122,4.983-11.473,15.235
				c-6.083,18.574,35.511,42.094,48.403,48.86l0.492,0.258l1.235-1.699l-0.706-0.373c-8.899-4.7-53.008-29.016-47.374-46.227
				c2.98-9.1,6.303-13.909,9.646-13.909c3.275,0.039,7.271,4.812,11.558,13.802c4.758,9.964,16.995,18.63,37.41,26.495l0.532,0.205
				l0.238-0.478c0.133-0.267,0.247-0.541,0.351-0.818l0.234-0.617l-0.655-0.252C217.762,284.217,205.931,275.935,201.458,266.55z"/>
			<path style="fill:#407BFF;" d="M204.358,263.119c-6.234-11.85-12.365-17.944-18.222-18.115
				c-5.813-0.131-11.164,5.494-15.94,16.811c-4.77,11.286,2.872,25.108,22.102,39.972c11.97,9.252,25.098,16.324,28.836,18.271
				l0.463,0.241l0.308-0.37c0.181-0.218,0.362-0.435,0.543-0.661l0.482-0.604l-0.742-0.387
				c-10.048-5.245-59.681-32.567-49.996-55.49c4.439-10.506,9.165-15.768,14.071-15.637c4.953,0.146,10.408,5.809,16.212,16.83
				c6.597,12.531,23.65,20.985,35.904,26.254l0.601,0.259l0.318-0.834c0.069-0.176,0.137-0.353,0.198-0.529l0.202-0.583l-0.604-0.26
				C227.174,283.159,210.607,274.971,204.358,263.119z"/>
			<path style="fill:#407BFF;" d="M207.263,259.677c-8.16-14.083-15.744-21.041-23.187-21.273
				c-7.198-0.215-13.889,6.058-19.964,18.639c-3.04,6.281-3.189,13.083-0.443,20.215c8.868,23.049,46.202,43.372,53.596,47.212
				l0.432,0.225l0.311-0.325c0.192-0.2,0.375-0.401,0.589-0.636l0.557-0.61l-0.794-0.411c-7.288-3.77-44.081-23.712-52.688-46.071
				c-2.521-6.543-2.388-12.78,0.397-18.54c5.627-11.652,11.643-17.555,17.885-17.555c0.082,0,0.164,0.001,0.246,0.003
				c6.568,0.198,13.51,6.764,21.219,20.074c6.762,11.677,21.874,19.993,34.285,25.934l0.617,0.295l0.227-0.598
				c0.101-0.265,0.192-0.53,0.284-0.805l0.184-0.555l-0.562-0.27C228.362,278.824,213.662,270.746,207.263,259.677z"/>
			<path style="fill:#407BFF;" d="M210.159,256.237c-7.173-11.291-16.885-24.287-28.433-24.561l-0.344-0.008
				c-8.324,0-16.183,6.935-23.358,20.612c-4.182,7.971-4.644,16.487-1.374,25.312c9.519,25.715,48.631,47.071,56.375,51.091
				l0.406,0.21l0.311-0.286c0.218-0.2,0.435-0.401,0.652-0.608l0.636-0.612l-0.85-0.437c-7.638-3.93-46.214-24.806-55.52-49.941
				c-3.044-8.224-2.608-16.164,1.297-23.603c6.91-13.187,14.281-19.806,21.923-19.585c10.42,0.249,19.632,12.661,26.492,23.445
				c6.959,10.965,20.362,19.062,32.556,25.535l0.659,0.349l0.22-0.663c0.092-0.276,0.175-0.555,0.249-0.831l0.137-0.512
				l-0.497-0.265C229.822,274.551,216.79,266.674,210.159,256.237z"/>
			<path style="fill:#407BFF;" d="M213.052,252.783l-0.176-0.241c-7.167-10.293-19.163-27.52-33.738-27.687h-0.197
				c-9.59,0-18.677,7.63-27.006,22.676c-5.388,9.68-6.205,19.925-2.428,30.45c9.781,27.262,47.512,48.755,58.844,54.693l0.376,0.198
				l0.381-0.298c0.222-0.173,0.438-0.343,0.653-0.526l0.708-0.604l-0.894-0.464c-7.971-4.146-48.234-26.209-58.051-53.557
				c-3.557-9.915-2.778-19.581,2.316-28.731c8.023-14.501,16.603-21.808,25.469-21.689c13.4,0.159,24.946,16.756,31.844,26.671
				l0.167,0.241c7.261,10.433,20.236,18.857,30.729,25.031l0.704,0.414l0.581-2.053l-0.473-0.278
				C232.648,271.004,220.031,262.808,213.052,252.783z"/>
			<path style="fill:#407BFF;" d="M215.953,249.363c-0.365-0.478-0.743-0.983-1.137-1.508l-0.945-1.258
				c-7.964-10.67-21.293-28.53-37.364-28.566c-10.845,0-21.162,8.328-30.663,24.754c-6.622,11.464-7.795,23.477-3.485,35.706
				c10.24,29.094,49.121,51.669,60.794,57.895l0.349,0.186l1.967-1.31l-0.994-0.525c-11.555-6.101-50.036-28.228-60.088-56.789
				c-4.091-11.622-2.966-23.051,3.344-33.969c9.131-15.794,18.875-23.802,29.004-23.802c14.873,0.034,27.754,17.29,35.449,27.6
				c0.741,0.997,1.443,1.937,2.093,2.787c7.609,9.988,19.38,18.275,28.785,24.38l0.739,0.479l0.207-0.799
				c0.073-0.282,0.144-0.573,0.207-0.864l0.097-0.45l-0.41-0.267C234.765,267.097,223.33,259.032,215.953,249.363z"/>
			<path style="fill:#407BFF;" d="M222.672,247.221c-19.11-28.585-36.176-34.689-47.129-34.776
				c-12.96-0.057-24.319,8.033-31.962,22.89c-9.04,17.567-10.223,34.806-3.517,51.237c11.586,28.4,43.742,46.734,57.029,53.299
				l0.288,0.142l0.272-0.127c0.323-0.15,0.645-0.318,0.958-0.486l1.072-0.575l-1.173-0.572
				c-10.28-5.011-44.731-23.594-56.461-52.341c-6.457-15.813-5.292-32.46,3.462-49.477c7.249-14.088,17.898-21.846,29.985-21.846
				h0.218c10.393,0.076,26.672,5.985,45.203,33.706c5.681,8.506,15.84,16.193,23.364,21.144l0.779,0.513l0.193-0.944
				c0.055-0.268,0.11-0.536,0.158-0.795l0.08-0.437l-0.392-0.259C237.857,262.726,228.087,255.314,222.672,247.221z"/>
			<path style="fill:#407BFF;" d="M225.282,242.644c-7.865-11.646-15.486-19.886-23.983-25.932
				c-11.46-8.147-23.211-11.405-33.982-9.423c-11.719,2.171-22.046,10.508-29.081,23.478c-15.583,28.685-7.535,52.691,1.96,67.774
				c14.713,23.57,41.678,38.116,52.589,43.276l0.263,0.124l0.254-0.1c0.357-0.141,0.696-0.281,1.051-0.44l1.245-0.556l-1.321-0.614
				c-10.85-5.044-37.664-19.304-52.281-42.705c-9.182-14.58-16.954-37.801-1.84-65.618c6.764-12.459,16.613-20.451,27.732-22.503
				c10.164-1.88,21.321,1.238,32.261,9.02c8.251,5.859,15.681,13.899,23.381,25.301c4.443,6.579,11.695,13.628,21.554,20.954
				l0.808,0.6l0.183-0.928c0.061-0.312,0.115-0.624,0.158-0.945l0.053-0.392l-0.336-0.251
				C236.467,255.686,229.514,248.917,225.282,242.644z"/>
			<path style="fill:#407BFF;" d="M227.892,238.067c-8.755-12.842-16.639-21.033-26.363-27.387
				c-12.565-8.214-25.424-11.33-37.182-9.003c-12.685,2.495-23.856,11.201-31.457,24.513c-12.963,22.725-12.739,48.858,0.613,71.697
				c14.783,25.289,42.959,40.323,54.387,45.613l0.225,0.104l0.226-0.063c0.376-0.104,0.744-0.222,1.118-0.343l1.63-0.525
				l-1.551-0.703c-11.4-5.171-39.502-19.909-54.194-45.034c-7.608-13.014-17.796-39.359-0.555-69.566
				c7.315-12.825,18.022-21.202,30.149-23.588c11.197-2.209,23.48,0.787,35.522,8.659c9.445,6.175,17.126,14.166,25.682,26.72
				c4.317,6.344,10.916,13.209,19.615,20.405l0.869,0.719l0.157-1.051c0.05-0.337,0.084-0.665,0.117-1.001l0.034-0.354l-0.289-0.241
				C238.335,250.726,232.026,244.141,227.892,238.067z"/>
			<path style="fill:#407BFF;" d="M230.503,233.49c-6.956-10.12-15.25-20.618-28.729-28.838
				c-34.667-21.146-61.647-4.074-74.219,16.971c-13.775,23.052-14.049,51.318-0.733,75.611
				c14.059,25.672,40.669,40.819,55.279,47.562l0.19,0.088l0.197-0.033c0.48-0.079,0.959-0.165,1.447-0.261l1.906-0.375
				l-1.861-0.839c-14.642-6.604-41.295-21.496-55.294-47.032c-12.937-23.607-12.66-51.086,0.741-73.504
				c12.095-20.254,38.037-36.698,71.344-16.386c13.071,7.972,21.176,18.234,27.986,28.135c4.238,6.176,10.125,12.72,17.497,19.452
				l0.952,0.869l0.106-1.215c0.03-0.345,0.051-0.698,0.072-1.051l-0.644-0.107l0,0l0.645,0.094l0.019-0.32l-0.248-0.229
				C240.132,245.617,234.53,239.362,230.503,233.49z"/>
			<path style="fill:#407BFF;" d="M233.113,228.914c-8.599-12.393-17.178-22.285-31.091-30.279
				c-16.044-9.23-32.414-11.758-47.34-7.31c-13.016,3.886-24.548,13.024-32.472,25.733c-14.777,23.692-15.554,53.422-2.077,79.527
				c13.59,26.325,40.041,41.875,54.598,48.801l0.141,0.067h0.151c0.638,0,1.267-0.008,1.91-0.044l2.499-0.136l-2.362-1.087
				c-14.71-6.772-41.422-22.07-55.037-48.444c-13.117-25.413-12.355-54.362,2.039-77.441c13.142-21.092,41.196-38.416,77.007-17.827
				c13.535,7.776,21.899,17.435,30.292,29.544c4.076,5.894,9.172,11.955,15.147,18.016l1.051,1.066l0.036-1.424
				c0.01-0.383,0.011-0.765,0.012-1.156l0.001-0.276l-0.202-0.208C241.749,240.212,236.937,234.452,233.113,228.914z"/>
			<path style="fill:#407BFF;" d="M235.723,224.338c-7.694-11.008-16.614-22.525-33.443-31.718
				c-17.193-9.395-34.769-11.77-50.827-6.873c-13.856,4.22-26.137,13.718-34.579,26.745c-18.574,28.626-13.945,61.878-3.419,83.452
				c11.946,24.482,34.259,39.885,50.875,48.495l0.159,0.078h0.103c0.854,0.158,1.733,0.295,2.615,0.406l3.635,0.458l-3.364-1.668
				c-17.095-8.476-40.012-23.783-52.1-48.575c-10.271-21.034-14.789-53.455,3.332-81.369c15.367-23.696,46.889-38.851,82.664-19.296
				c16.394,8.959,25.1,20.217,32.612,30.98c3.839,5.501,8.036,10.824,12.476,15.823l1.161,1.307l-0.053-1.836
				c-0.011-0.383-0.021-0.757-0.042-1.169l-0.02-0.232l-0.154-0.175C243.218,234.462,239.305,229.471,235.723,224.338z"/>
			<path style="fill:#407BFF;" d="M246.933,231.614l-0.02-0.195l-0.125-0.16c-3.234-4.138-6.088-8.133-8.453-11.496
				c-8.481-12.048-17.601-23.649-35.801-33.155c-39.163-20.478-73.925-4.048-91.003,21.32
				c-19.793,29.398-14.936,65.439-4.762,87.368c7.176,15.54,19.113,29.228,35.409,40.63l0.187,0.127
				c2.445,1.457,4.923,2.746,7.368,3.832l0.521-1.125c-19.544-11.983-33.52-26.859-41.539-44.217
				c-9.943-21.413-14.696-56.605,4.632-85.312c16.582-24.641,50.322-40.613,88.321-20.747c17.704,9.255,26.63,20.608,34.94,32.401
				c2.418,3.439,5.665,7.983,9.339,12.63l1.316,1.665l-0.178-2.035C247.039,232.634,246.986,232.124,246.933,231.614z"/>
			<path style="fill:#407BFF;" d="M159.549,99.268c-1.336-0.114-2.713-0.117-4.129,0.084c7.757,2.783,20.906,6.63,25.228,7.462
				C176.544,103.82,164.614,99.696,159.549,99.268z"/>
		</g>
	</g>
	<g>
		<polygon style="fill:#407BFF;" points="72.613,90.19 73.273,97.739 55.689,97.739 57.227,115.323 49.679,115.323 47.48,90.19 		
			"/>
		<polygon style="fill:#407BFF;" points="95.423,356.845 94.763,349.297 77.178,349.297 75.64,331.712 68.092,331.712 
			70.29,356.845 		"/>
		<polygon style="fill:#407BFF;" points="248.306,356.851 247.645,349.302 265.23,349.302 263.691,331.718 271.24,331.718 
			273.439,356.851 		"/>
		<polygon style="fill:#407BFF;" points="224.493,90.803 225.153,98.352 242.738,98.352 244.276,115.936 251.824,115.936 
			249.626,90.803 		"/>
	</g>
</g>
</svg>
