<svg width="22" height="18" viewBox="0 0 22 18" fill="none" xmlns="http://www.w3.org/2000/svg">
<path d="M2.99989 1L18.9999 17M15.4999 13.7559C14.1473 14.4845 12.6185 14.9999 10.9999 14.9999C7.46924 14.9999 4.36624 12.5478 2.5868 10.7788C2.1171 10.3119 1.88229 10.0784 1.7328 9.62012C1.62619 9.29328 1.62616 8.70657 1.7328 8.37974C1.88233 7.92147 2.11763 7.68745 2.58827 7.21967C3.48515 6.32821 4.71801 5.26359 6.17219 4.42676M18.4999 11.6335C18.8329 11.3405 19.138 11.0523 19.4117 10.7803L19.4146 10.7772C19.8832 10.3114 20.1182 10.0779 20.2674 9.62061C20.374 9.29378 20.3738 8.70684 20.2672 8.38C20.1178 7.92187 19.8827 7.68775 19.4133 7.22111C17.6338 5.45208 14.5305 3 10.9999 3C10.6624 3 10.3288 3.02241 9.99989 3.06448M12.3228 10.5C11.9702 10.8112 11.5071 11 10.9999 11C9.89532 11 8.99989 10.1046 8.99989 9C8.99989 8.4605 9.21351 7.97108 9.56077 7.61133" stroke="black" stroke-width="2" stroke-linecap="round" stroke-linejoin="round"/>
</svg>
